<svg xmlns="http://www.w3.org/2000/svg" version="1.1">
<line x1="100" y1="100" x2="100" y2="600" style="stroke:BLACK;stroke-width:2"/>
<line x1="100" y1="600" x2="600" y2="600" style="stroke:BLACK;stroke-width:2"/>
<text x="100" y="100" fill="BLACK">消費</text>
<text x="600" y="600" fill="BLACK">期間</text>
<line x1="100" y1="529" x2="600" y2="529" style="stroke:BLUE;stroke-width:1"/>
<line x1="100" y1="458" x2="600" y2="458" style="stroke:BLUE;stroke-width:1"/>
<line x1="100" y1="386" x2="600" y2="386" style="stroke:BLUE;stroke-width:1"/>
<line x1="100" y1="315" x2="600" y2="315" style="stroke:BLUE;stroke-width:1"/>
<line x1="100" y1="243" x2="600" y2="243" style="stroke:BLUE;stroke-width:1"/>
<line x1="100" y1="172" x2="600" y2="172" style="stroke:BLUE;stroke-width:1"/>
<text x="80" y="529" fill="BLUE">-2%</text>
<text x="80" y="458" fill="BLUE">-1%</text>
<text x="80" y="386" fill="BLUE">0%</text>
<text x="80" y="315" fill="BLUE">1%</text>
<text x="80" y="243" fill="BLUE">2%</text>
<text x="80" y="172" fill="BLUE">3%</text>
<line x1="105" y1="425" x2="110" y2="462" style="stroke:RED;stroke-width:2"/>
<line x1="110" y1="462" x2="115" y2="473" style="stroke:RED;stroke-width:2"/>
<line x1="115" y1="473" x2="120" y2="426" style="stroke:RED;stroke-width:2"/>
<line x1="120" y1="426" x2="125" y2="451" style="stroke:RED;stroke-width:2"/>
<line x1="125" y1="451" x2="130" y2="444" style="stroke:RED;stroke-width:2"/>
<line x1="130" y1="444" x2="135" y2="466" style="stroke:RED;stroke-width:2"/>
<line x1="135" y1="466" x2="140" y2="505" style="stroke:RED;stroke-width:2"/>
<line x1="140" y1="505" x2="145" y2="527" style="stroke:RED;stroke-width:2"/>
<line x1="145" y1="527" x2="150" y2="562" style="stroke:RED;stroke-width:2"/>
<line x1="150" y1="562" x2="155" y2="574" style="stroke:RED;stroke-width:2"/>
<line x1="155" y1="574" x2="160" y2="574" style="stroke:RED;stroke-width:2"/>
<line x1="160" y1="574" x2="165" y2="517" style="stroke:RED;stroke-width:2"/>
<line x1="165" y1="517" x2="170" y2="488" style="stroke:RED;stroke-width:2"/>
<line x1="170" y1="488" x2="175" y2="524" style="stroke:RED;stroke-width:2"/>
<line x1="175" y1="524" x2="180" y2="541" style="stroke:RED;stroke-width:2"/>
<line x1="180" y1="541" x2="185" y2="563" style="stroke:RED;stroke-width:2"/>
<line x1="185" y1="563" x2="190" y2="511" style="stroke:RED;stroke-width:2"/>
<line x1="190" y1="511" x2="195" y2="544" style="stroke:RED;stroke-width:2"/>
<line x1="195" y1="544" x2="200" y2="539" style="stroke:RED;stroke-width:2"/>
<line x1="200" y1="539" x2="205" y2="479" style="stroke:RED;stroke-width:2"/>
<line x1="205" y1="479" x2="210" y2="448" style="stroke:RED;stroke-width:2"/>
<line x1="210" y1="448" x2="215" y2="408" style="stroke:RED;stroke-width:2"/>
<line x1="215" y1="408" x2="220" y2="414" style="stroke:RED;stroke-width:2"/>
<line x1="220" y1="414" x2="225" y2="451" style="stroke:RED;stroke-width:2"/>
<line x1="225" y1="451" x2="230" y2="460" style="stroke:RED;stroke-width:2"/>
<line x1="230" y1="460" x2="235" y2="489" style="stroke:RED;stroke-width:2"/>
<line x1="235" y1="489" x2="240" y2="452" style="stroke:RED;stroke-width:2"/>
<line x1="240" y1="452" x2="245" y2="430" style="stroke:RED;stroke-width:2"/>
<line x1="245" y1="430" x2="250" y2="393" style="stroke:RED;stroke-width:2"/>
<line x1="250" y1="393" x2="255" y2="384" style="stroke:RED;stroke-width:2"/>
<line x1="255" y1="384" x2="260" y2="358" style="stroke:RED;stroke-width:2"/>
<line x1="260" y1="358" x2="265" y2="315" style="stroke:RED;stroke-width:2"/>
<line x1="265" y1="315" x2="270" y2="341" style="stroke:RED;stroke-width:2"/>
<line x1="270" y1="341" x2="275" y2="347" style="stroke:RED;stroke-width:2"/>
<line x1="275" y1="347" x2="280" y2="334" style="stroke:RED;stroke-width:2"/>
<line x1="280" y1="334" x2="285" y2="333" style="stroke:RED;stroke-width:2"/>
<line x1="285" y1="333" x2="290" y2="339" style="stroke:RED;stroke-width:2"/>
<line x1="290" y1="339" x2="295" y2="355" style="stroke:RED;stroke-width:2"/>
<line x1="295" y1="355" x2="300" y2="346" style="stroke:RED;stroke-width:2"/>
<line x1="300" y1="346" x2="305" y2="368" style="stroke:RED;stroke-width:2"/>
<line x1="305" y1="368" x2="310" y2="344" style="stroke:RED;stroke-width:2"/>
<line x1="310" y1="344" x2="315" y2="345" style="stroke:RED;stroke-width:2"/>
<line x1="315" y1="345" x2="320" y2="376" style="stroke:RED;stroke-width:2"/>
<line x1="320" y1="376" x2="325" y2="373" style="stroke:RED;stroke-width:2"/>
<line x1="325" y1="373" x2="330" y2="357" style="stroke:RED;stroke-width:2"/>
<line x1="330" y1="357" x2="335" y2="354" style="stroke:RED;stroke-width:2"/>
<line x1="335" y1="354" x2="340" y2="379" style="stroke:RED;stroke-width:2"/>
<line x1="340" y1="379" x2="345" y2="351" style="stroke:RED;stroke-width:2"/>
<line x1="345" y1="351" x2="350" y2="355" style="stroke:RED;stroke-width:2"/>
<line x1="350" y1="355" x2="355" y2="400" style="stroke:RED;stroke-width:2"/>
<line x1="355" y1="400" x2="360" y2="423" style="stroke:RED;stroke-width:2"/>
<line x1="360" y1="423" x2="365" y2="389" style="stroke:RED;stroke-width:2"/>
<line x1="365" y1="389" x2="370" y2="420" style="stroke:RED;stroke-width:2"/>
<line x1="370" y1="420" x2="375" y2="422" style="stroke:RED;stroke-width:2"/>
<line x1="375" y1="422" x2="380" y2="457" style="stroke:RED;stroke-width:2"/>
<line x1="380" y1="457" x2="385" y2="477" style="stroke:RED;stroke-width:2"/>
<line x1="385" y1="477" x2="390" y2="467" style="stroke:RED;stroke-width:2"/>
<line x1="390" y1="467" x2="395" y2="455" style="stroke:RED;stroke-width:2"/>
<line x1="395" y1="455" x2="400" y2="434" style="stroke:RED;stroke-width:2"/>
<line x1="400" y1="434" x2="405" y2="397" style="stroke:RED;stroke-width:2"/>
<line x1="405" y1="397" x2="410" y2="421" style="stroke:RED;stroke-width:2"/>
<line x1="410" y1="421" x2="415" y2="462" style="stroke:RED;stroke-width:2"/>
<line x1="415" y1="462" x2="420" y2="433" style="stroke:RED;stroke-width:2"/>
<line x1="420" y1="433" x2="425" y2="411" style="stroke:RED;stroke-width:2"/>
<line x1="425" y1="411" x2="430" y2="431" style="stroke:RED;stroke-width:2"/>
<line x1="430" y1="431" x2="435" y2="434" style="stroke:RED;stroke-width:2"/>
<line x1="435" y1="434" x2="440" y2="429" style="stroke:RED;stroke-width:2"/>
<line x1="440" y1="429" x2="445" y2="433" style="stroke:RED;stroke-width:2"/>
<line x1="445" y1="433" x2="450" y2="400" style="stroke:RED;stroke-width:2"/>
<line x1="450" y1="400" x2="455" y2="384" style="stroke:RED;stroke-width:2"/>
<line x1="455" y1="384" x2="460" y2="360" style="stroke:RED;stroke-width:2"/>
<line x1="460" y1="360" x2="465" y2="369" style="stroke:RED;stroke-width:2"/>
<line x1="465" y1="369" x2="470" y2="357" style="stroke:RED;stroke-width:2"/>
<line x1="470" y1="357" x2="475" y2="329" style="stroke:RED;stroke-width:2"/>
<line x1="475" y1="329" x2="480" y2="284" style="stroke:RED;stroke-width:2"/>
<line x1="480" y1="284" x2="485" y2="259" style="stroke:RED;stroke-width:2"/>
<line x1="485" y1="259" x2="490" y2="294" style="stroke:RED;stroke-width:2"/>
<line x1="490" y1="294" x2="495" y2="257" style="stroke:RED;stroke-width:2"/>
<line x1="495" y1="257" x2="500" y2="216" style="stroke:RED;stroke-width:2"/>
<line x1="500" y1="216" x2="505" y2="182" style="stroke:RED;stroke-width:2"/>
<line x1="505" y1="182" x2="510" y2="168" style="stroke:RED;stroke-width:2"/>
<line x1="510" y1="168" x2="515" y2="142" style="stroke:RED;stroke-width:2"/>
<line x1="515" y1="142" x2="520" y2="191" style="stroke:RED;stroke-width:2"/>
<line x1="520" y1="191" x2="525" y2="187" style="stroke:RED;stroke-width:2"/>
<line x1="525" y1="187" x2="530" y2="228" style="stroke:RED;stroke-width:2"/>
<line x1="530" y1="228" x2="535" y2="204" style="stroke:RED;stroke-width:2"/>
<line x1="535" y1="204" x2="540" y2="254" style="stroke:RED;stroke-width:2"/>
<line x1="540" y1="254" x2="545" y2="264" style="stroke:RED;stroke-width:2"/>
<line x1="545" y1="264" x2="550" y2="234" style="stroke:RED;stroke-width:2"/>
<line x1="550" y1="234" x2="555" y2="232" style="stroke:RED;stroke-width:2"/>
<line x1="555" y1="232" x2="560" y2="227" style="stroke:RED;stroke-width:2"/>
<line x1="560" y1="227" x2="565" y2="287" style="stroke:RED;stroke-width:2"/>
<line x1="565" y1="287" x2="570" y2="337" style="stroke:RED;stroke-width:2"/>
<line x1="570" y1="337" x2="575" y2="347" style="stroke:RED;stroke-width:2"/>
<line x1="575" y1="347" x2="580" y2="361" style="stroke:RED;stroke-width:2"/>
<line x1="580" y1="361" x2="585" y2="393" style="stroke:RED;stroke-width:2"/>
<line x1="585" y1="393" x2="590" y2="383" style="stroke:RED;stroke-width:2"/>
<line x1="590" y1="383" x2="595" y2="345" style="stroke:RED;stroke-width:2"/>
<line x1="595" y1="345" x2="600" y2="357" style="stroke:RED;stroke-width:2"/>
</svg>
