<svg xmlns="http://www.w3.org/2000/svg" version="1.1">
<line x1="105" y1="216" x2="110" y2="212" style="stroke:RED;stroke-width:2"/>
<line x1="110" y1="212" x2="115" y2="232" style="stroke:RED;stroke-width:2"/>
<line x1="115" y1="232" x2="120" y2="267" style="stroke:RED;stroke-width:2"/>
<line x1="120" y1="267" x2="125" y2="239" style="stroke:RED;stroke-width:2"/>
<line x1="125" y1="239" x2="130" y2="210" style="stroke:RED;stroke-width:2"/>
<line x1="130" y1="210" x2="135" y2="275" style="stroke:RED;stroke-width:2"/>
<line x1="135" y1="275" x2="140" y2="296" style="stroke:RED;stroke-width:2"/>
<line x1="140" y1="296" x2="145" y2="283" style="stroke:RED;stroke-width:2"/>
<line x1="145" y1="283" x2="150" y2="330" style="stroke:RED;stroke-width:2"/>
<line x1="150" y1="330" x2="155" y2="431" style="stroke:RED;stroke-width:2"/>
<line x1="155" y1="431" x2="160" y2="353" style="stroke:RED;stroke-width:2"/>
<line x1="160" y1="353" x2="165" y2="395" style="stroke:RED;stroke-width:2"/>
<line x1="165" y1="395" x2="170" y2="416" style="stroke:RED;stroke-width:2"/>
<line x1="170" y1="416" x2="175" y2="423" style="stroke:RED;stroke-width:2"/>
<line x1="175" y1="423" x2="180" y2="487" style="stroke:RED;stroke-width:2"/>
<line x1="180" y1="487" x2="185" y2="518" style="stroke:RED;stroke-width:2"/>
<line x1="185" y1="518" x2="190" y2="600" style="stroke:RED;stroke-width:2"/>
<line x1="190" y1="600" x2="195" y2="512" style="stroke:RED;stroke-width:2"/>
<line x1="195" y1="512" x2="200" y2="381" style="stroke:RED;stroke-width:2"/>
<line x1="200" y1="381" x2="205" y2="442" style="stroke:RED;stroke-width:2"/>
<line x1="205" y1="442" x2="210" y2="458" style="stroke:RED;stroke-width:2"/>
<line x1="210" y1="458" x2="215" y2="353" style="stroke:RED;stroke-width:2"/>
<line x1="215" y1="353" x2="220" y2="356" style="stroke:RED;stroke-width:2"/>
<line x1="220" y1="356" x2="225" y2="364" style="stroke:RED;stroke-width:2"/>
<line x1="225" y1="364" x2="230" y2="359" style="stroke:RED;stroke-width:2"/>
<line x1="230" y1="359" x2="235" y2="310" style="stroke:RED;stroke-width:2"/>
<line x1="235" y1="310" x2="240" y2="419" style="stroke:RED;stroke-width:2"/>
<line x1="240" y1="419" x2="245" y2="298" style="stroke:RED;stroke-width:2"/>
<line x1="245" y1="298" x2="250" y2="345" style="stroke:RED;stroke-width:2"/>
<line x1="250" y1="345" x2="255" y2="322" style="stroke:RED;stroke-width:2"/>
<line x1="255" y1="322" x2="260" y2="270" style="stroke:RED;stroke-width:2"/>
<line x1="260" y1="270" x2="265" y2="171" style="stroke:RED;stroke-width:2"/>
<line x1="265" y1="171" x2="270" y2="245" style="stroke:RED;stroke-width:2"/>
<line x1="270" y1="245" x2="275" y2="191" style="stroke:RED;stroke-width:2"/>
<line x1="275" y1="191" x2="280" y2="180" style="stroke:RED;stroke-width:2"/>
<line x1="280" y1="180" x2="285" y2="165" style="stroke:RED;stroke-width:2"/>
<line x1="285" y1="165" x2="290" y2="125" style="stroke:RED;stroke-width:2"/>
<line x1="290" y1="125" x2="295" y2="159" style="stroke:RED;stroke-width:2"/>
<line x1="295" y1="159" x2="300" y2="257" style="stroke:RED;stroke-width:2"/>
<line x1="300" y1="257" x2="305" y2="246" style="stroke:RED;stroke-width:2"/>
<line x1="305" y1="246" x2="310" y2="244" style="stroke:RED;stroke-width:2"/>
<line x1="310" y1="244" x2="315" y2="242" style="stroke:RED;stroke-width:2"/>
<line x1="315" y1="242" x2="320" y2="212" style="stroke:RED;stroke-width:2"/>
<line x1="320" y1="212" x2="325" y2="145" style="stroke:RED;stroke-width:2"/>
<line x1="325" y1="145" x2="330" y2="108" style="stroke:RED;stroke-width:2"/>
<line x1="330" y1="108" x2="335" y2="100" style="stroke:RED;stroke-width:2"/>
<line x1="335" y1="100" x2="340" y2="194" style="stroke:RED;stroke-width:2"/>
<line x1="340" y1="194" x2="345" y2="150" style="stroke:RED;stroke-width:2"/>
<line x1="345" y1="150" x2="350" y2="161" style="stroke:RED;stroke-width:2"/>
<line x1="350" y1="161" x2="355" y2="223" style="stroke:RED;stroke-width:2"/>
<line x1="355" y1="223" x2="360" y2="251" style="stroke:RED;stroke-width:2"/>
<line x1="360" y1="251" x2="365" y2="211" style="stroke:RED;stroke-width:2"/>
<line x1="365" y1="211" x2="370" y2="160" style="stroke:RED;stroke-width:2"/>
<line x1="370" y1="160" x2="375" y2="149" style="stroke:RED;stroke-width:2"/>
<line x1="375" y1="149" x2="380" y2="112" style="stroke:RED;stroke-width:2"/>
<line x1="380" y1="112" x2="385" y2="153" style="stroke:RED;stroke-width:2"/>
<line x1="385" y1="153" x2="390" y2="213" style="stroke:RED;stroke-width:2"/>
<line x1="390" y1="213" x2="395" y2="282" style="stroke:RED;stroke-width:2"/>
<line x1="395" y1="282" x2="400" y2="211" style="stroke:RED;stroke-width:2"/>
<line x1="400" y1="211" x2="405" y2="271" style="stroke:RED;stroke-width:2"/>
<line x1="405" y1="271" x2="410" y2="262" style="stroke:RED;stroke-width:2"/>
<line x1="410" y1="262" x2="415" y2="259" style="stroke:RED;stroke-width:2"/>
<line x1="415" y1="259" x2="420" y2="332" style="stroke:RED;stroke-width:2"/>
<line x1="420" y1="332" x2="425" y2="294" style="stroke:RED;stroke-width:2"/>
<line x1="425" y1="294" x2="430" y2="240" style="stroke:RED;stroke-width:2"/>
<line x1="430" y1="240" x2="435" y2="276" style="stroke:RED;stroke-width:2"/>
<line x1="435" y1="276" x2="440" y2="175" style="stroke:RED;stroke-width:2"/>
<line x1="440" y1="175" x2="445" y2="230" style="stroke:RED;stroke-width:2"/>
<line x1="445" y1="230" x2="450" y2="291" style="stroke:RED;stroke-width:2"/>
<line x1="450" y1="291" x2="455" y2="343" style="stroke:RED;stroke-width:2"/>
<line x1="455" y1="343" x2="460" y2="366" style="stroke:RED;stroke-width:2"/>
<line x1="460" y1="366" x2="465" y2="347" style="stroke:RED;stroke-width:2"/>
<line x1="465" y1="347" x2="470" y2="303" style="stroke:RED;stroke-width:2"/>
<line x1="470" y1="303" x2="475" y2="270" style="stroke:RED;stroke-width:2"/>
<line x1="475" y1="270" x2="480" y2="168" style="stroke:RED;stroke-width:2"/>
<line x1="480" y1="168" x2="485" y2="219" style="stroke:RED;stroke-width:2"/>
<line x1="485" y1="219" x2="490" y2="189" style="stroke:RED;stroke-width:2"/>
<line x1="490" y1="189" x2="495" y2="174" style="stroke:RED;stroke-width:2"/>
<line x1="495" y1="174" x2="500" y2="175" style="stroke:RED;stroke-width:2"/>
<line x1="500" y1="175" x2="505" y2="247" style="stroke:RED;stroke-width:2"/>
<line x1="505" y1="247" x2="510" y2="212" style="stroke:RED;stroke-width:2"/>
<line x1="510" y1="212" x2="515" y2="196" style="stroke:RED;stroke-width:2"/>
<line x1="515" y1="196" x2="520" y2="265" style="stroke:RED;stroke-width:2"/>
<line x1="520" y1="265" x2="525" y2="354" style="stroke:RED;stroke-width:2"/>
<line x1="525" y1="354" x2="530" y2="285" style="stroke:RED;stroke-width:2"/>
<line x1="530" y1="285" x2="535" y2="388" style="stroke:RED;stroke-width:2"/>
<line x1="535" y1="388" x2="540" y2="352" style="stroke:RED;stroke-width:2"/>
<line x1="540" y1="352" x2="545" y2="276" style="stroke:RED;stroke-width:2"/>
<line x1="545" y1="276" x2="550" y2="340" style="stroke:RED;stroke-width:2"/>
<line x1="550" y1="340" x2="555" y2="338" style="stroke:RED;stroke-width:2"/>
<line x1="555" y1="338" x2="560" y2="288" style="stroke:RED;stroke-width:2"/>
<line x1="560" y1="288" x2="565" y2="275" style="stroke:RED;stroke-width:2"/>
<line x1="565" y1="275" x2="570" y2="195" style="stroke:RED;stroke-width:2"/>
<line x1="570" y1="195" x2="575" y2="226" style="stroke:RED;stroke-width:2"/>
<line x1="575" y1="226" x2="580" y2="264" style="stroke:RED;stroke-width:2"/>
<line x1="580" y1="264" x2="585" y2="351" style="stroke:RED;stroke-width:2"/>
<line x1="585" y1="351" x2="590" y2="443" style="stroke:RED;stroke-width:2"/>
<line x1="590" y1="443" x2="595" y2="528" style="stroke:RED;stroke-width:2"/>
<line x1="595" y1="528" x2="600" y2="398" style="stroke:RED;stroke-width:2"/>
<line x1="100" y1="100" x2="100" y2="600" style="stroke:BLACK;stroke-width:2"/>
<line x1="100" y1="600" x2="600" y2="600" style="stroke:BLACK;stroke-width:2"/>
<text x="60" y="100" fill="BLACK">0.6%</text>
<text x="60" y="600" fill="BLACK">-1%</text>
<text x="70" y="300" fill="BLUE">消費</text>
<text x="300" y="600" fill="BLUE">期間</text>
</svg>
