<svg xmlns="http://www.w3.org/2000/svg" version="1.1">
<line x1="105" y1="327" x2="110" y2="250" style="stroke:RED;stroke-width:2"/>
<line x1="110" y1="250" x2="115" y2="241" style="stroke:RED;stroke-width:2"/>
<line x1="115" y1="241" x2="120" y2="326" style="stroke:RED;stroke-width:2"/>
<line x1="120" y1="326" x2="125" y2="259" style="stroke:RED;stroke-width:2"/>
<line x1="125" y1="259" x2="130" y2="287" style="stroke:RED;stroke-width:2"/>
<line x1="130" y1="287" x2="135" y2="375" style="stroke:RED;stroke-width:2"/>
<line x1="135" y1="375" x2="140" y2="457" style="stroke:RED;stroke-width:2"/>
<line x1="140" y1="457" x2="145" y2="530" style="stroke:RED;stroke-width:2"/>
<line x1="145" y1="530" x2="150" y2="600" style="stroke:RED;stroke-width:2"/>
<line x1="150" y1="600" x2="155" y2="580" style="stroke:RED;stroke-width:2"/>
<line x1="155" y1="580" x2="160" y2="547" style="stroke:RED;stroke-width:2"/>
<line x1="160" y1="547" x2="165" y2="593" style="stroke:RED;stroke-width:2"/>
<line x1="165" y1="593" x2="170" y2="520" style="stroke:RED;stroke-width:2"/>
<line x1="170" y1="520" x2="175" y2="542" style="stroke:RED;stroke-width:2"/>
<line x1="175" y1="542" x2="180" y2="445" style="stroke:RED;stroke-width:2"/>
<line x1="180" y1="445" x2="185" y2="434" style="stroke:RED;stroke-width:2"/>
<line x1="185" y1="434" x2="190" y2="365" style="stroke:RED;stroke-width:2"/>
<line x1="190" y1="365" x2="195" y2="306" style="stroke:RED;stroke-width:2"/>
<line x1="195" y1="306" x2="200" y2="373" style="stroke:RED;stroke-width:2"/>
<line x1="200" y1="373" x2="205" y2="448" style="stroke:RED;stroke-width:2"/>
<line x1="205" y1="448" x2="210" y2="386" style="stroke:RED;stroke-width:2"/>
<line x1="210" y1="386" x2="215" y2="463" style="stroke:RED;stroke-width:2"/>
<line x1="215" y1="463" x2="220" y2="360" style="stroke:RED;stroke-width:2"/>
<line x1="220" y1="360" x2="225" y2="423" style="stroke:RED;stroke-width:2"/>
<line x1="225" y1="423" x2="230" y2="433" style="stroke:RED;stroke-width:2"/>
<line x1="230" y1="433" x2="235" y2="449" style="stroke:RED;stroke-width:2"/>
<line x1="235" y1="449" x2="240" y2="360" style="stroke:RED;stroke-width:2"/>
<line x1="240" y1="360" x2="245" y2="307" style="stroke:RED;stroke-width:2"/>
<line x1="245" y1="307" x2="250" y2="335" style="stroke:RED;stroke-width:2"/>
<line x1="250" y1="335" x2="255" y2="279" style="stroke:RED;stroke-width:2"/>
<line x1="255" y1="279" x2="260" y2="300" style="stroke:RED;stroke-width:2"/>
<line x1="260" y1="300" x2="265" y2="261" style="stroke:RED;stroke-width:2"/>
<line x1="265" y1="261" x2="270" y2="209" style="stroke:RED;stroke-width:2"/>
<line x1="270" y1="209" x2="275" y2="124" style="stroke:RED;stroke-width:2"/>
<line x1="275" y1="124" x2="280" y2="167" style="stroke:RED;stroke-width:2"/>
<line x1="280" y1="167" x2="285" y2="156" style="stroke:RED;stroke-width:2"/>
<line x1="285" y1="156" x2="290" y2="218" style="stroke:RED;stroke-width:2"/>
<line x1="290" y1="218" x2="295" y2="155" style="stroke:RED;stroke-width:2"/>
<line x1="295" y1="155" x2="300" y2="250" style="stroke:RED;stroke-width:2"/>
<line x1="300" y1="250" x2="305" y2="160" style="stroke:RED;stroke-width:2"/>
<line x1="305" y1="160" x2="310" y2="260" style="stroke:RED;stroke-width:2"/>
<line x1="310" y1="260" x2="315" y2="279" style="stroke:RED;stroke-width:2"/>
<line x1="315" y1="279" x2="320" y2="224" style="stroke:RED;stroke-width:2"/>
<line x1="320" y1="224" x2="325" y2="220" style="stroke:RED;stroke-width:2"/>
<line x1="325" y1="220" x2="330" y2="310" style="stroke:RED;stroke-width:2"/>
<line x1="330" y1="310" x2="335" y2="297" style="stroke:RED;stroke-width:2"/>
<line x1="335" y1="297" x2="340" y2="262" style="stroke:RED;stroke-width:2"/>
<line x1="340" y1="262" x2="345" y2="218" style="stroke:RED;stroke-width:2"/>
<line x1="345" y1="218" x2="350" y2="257" style="stroke:RED;stroke-width:2"/>
<line x1="350" y1="257" x2="355" y2="320" style="stroke:RED;stroke-width:2"/>
<line x1="355" y1="320" x2="360" y2="339" style="stroke:RED;stroke-width:2"/>
<line x1="360" y1="339" x2="365" y2="368" style="stroke:RED;stroke-width:2"/>
<line x1="365" y1="368" x2="370" y2="279" style="stroke:RED;stroke-width:2"/>
<line x1="370" y1="279" x2="375" y2="338" style="stroke:RED;stroke-width:2"/>
<line x1="375" y1="338" x2="380" y2="253" style="stroke:RED;stroke-width:2"/>
<line x1="380" y1="253" x2="385" y2="205" style="stroke:RED;stroke-width:2"/>
<line x1="385" y1="205" x2="390" y2="171" style="stroke:RED;stroke-width:2"/>
<line x1="390" y1="171" x2="395" y2="101" style="stroke:RED;stroke-width:2"/>
<line x1="395" y1="101" x2="400" y2="147" style="stroke:RED;stroke-width:2"/>
<line x1="400" y1="147" x2="405" y2="211" style="stroke:RED;stroke-width:2"/>
<line x1="405" y1="211" x2="410" y2="170" style="stroke:RED;stroke-width:2"/>
<line x1="410" y1="170" x2="415" y2="124" style="stroke:RED;stroke-width:2"/>
<line x1="415" y1="124" x2="420" y2="205" style="stroke:RED;stroke-width:2"/>
<line x1="420" y1="205" x2="425" y2="226" style="stroke:RED;stroke-width:2"/>
<line x1="425" y1="226" x2="430" y2="322" style="stroke:RED;stroke-width:2"/>
<line x1="430" y1="322" x2="435" y2="312" style="stroke:RED;stroke-width:2"/>
<line x1="435" y1="312" x2="440" y2="335" style="stroke:RED;stroke-width:2"/>
<line x1="440" y1="335" x2="445" y2="376" style="stroke:RED;stroke-width:2"/>
<line x1="445" y1="376" x2="450" y2="340" style="stroke:RED;stroke-width:2"/>
<line x1="450" y1="340" x2="455" y2="296" style="stroke:RED;stroke-width:2"/>
<line x1="455" y1="296" x2="460" y2="343" style="stroke:RED;stroke-width:2"/>
<line x1="460" y1="343" x2="465" y2="362" style="stroke:RED;stroke-width:2"/>
<line x1="465" y1="362" x2="470" y2="268" style="stroke:RED;stroke-width:2"/>
<line x1="470" y1="268" x2="475" y2="302" style="stroke:RED;stroke-width:2"/>
<line x1="475" y1="302" x2="480" y2="342" style="stroke:RED;stroke-width:2"/>
<line x1="480" y1="342" x2="485" y2="365" style="stroke:RED;stroke-width:2"/>
<line x1="485" y1="365" x2="490" y2="423" style="stroke:RED;stroke-width:2"/>
<line x1="490" y1="423" x2="495" y2="435" style="stroke:RED;stroke-width:2"/>
<line x1="495" y1="435" x2="500" y2="332" style="stroke:RED;stroke-width:2"/>
<line x1="500" y1="332" x2="505" y2="401" style="stroke:RED;stroke-width:2"/>
<line x1="505" y1="401" x2="510" y2="476" style="stroke:RED;stroke-width:2"/>
<line x1="510" y1="476" x2="515" y2="494" style="stroke:RED;stroke-width:2"/>
<line x1="515" y1="494" x2="520" y2="521" style="stroke:RED;stroke-width:2"/>
<line x1="520" y1="521" x2="525" y2="517" style="stroke:RED;stroke-width:2"/>
<line x1="525" y1="517" x2="530" y2="548" style="stroke:RED;stroke-width:2"/>
<line x1="530" y1="548" x2="535" y2="517" style="stroke:RED;stroke-width:2"/>
<line x1="535" y1="517" x2="540" y2="527" style="stroke:RED;stroke-width:2"/>
<line x1="540" y1="527" x2="545" y2="477" style="stroke:RED;stroke-width:2"/>
<line x1="545" y1="477" x2="550" y2="550" style="stroke:RED;stroke-width:2"/>
<line x1="550" y1="550" x2="555" y2="476" style="stroke:RED;stroke-width:2"/>
<line x1="555" y1="476" x2="560" y2="424" style="stroke:RED;stroke-width:2"/>
<line x1="560" y1="424" x2="565" y2="392" style="stroke:RED;stroke-width:2"/>
<line x1="565" y1="392" x2="570" y2="404" style="stroke:RED;stroke-width:2"/>
<line x1="570" y1="404" x2="575" y2="488" style="stroke:RED;stroke-width:2"/>
<line x1="575" y1="488" x2="580" y2="563" style="stroke:RED;stroke-width:2"/>
<line x1="580" y1="563" x2="585" y2="518" style="stroke:RED;stroke-width:2"/>
<line x1="585" y1="518" x2="590" y2="428" style="stroke:RED;stroke-width:2"/>
<line x1="590" y1="428" x2="595" y2="443" style="stroke:RED;stroke-width:2"/>
<line x1="595" y1="443" x2="600" y2="410" style="stroke:RED;stroke-width:2"/>
<line x1="100" y1="100" x2="100" y2="600" style="stroke:BLACK;stroke-width:2"/>
<line x1="100" y1="600" x2="600" y2="600" style="stroke:BLACK;stroke-width:2"/>
<text x="60" y="100" fill="BLACK">1.8%</text>
<text x="60" y="600" fill="BLACK">-1.8%</text>
<text x="70" y="300" fill="BLUE">消費</text>
<text x="300" y="600" fill="BLUE">期間</text>
</svg>
